<?xml version="1.0" encoding="UTF-8" standalone="no"?>
<!DOCTYPE svg PUBLIC "-//W3C//DTD SVG 1.1//EN"
 "http://www.w3.org/Graphics/SVG/1.1/DTD/svg11.dtd">
<!-- Generated by graphviz version 5.0.0 (20220707.1540)
 -->
<!-- Title: dependencies Pages: 1 -->
<svg width="657pt" height="247pt"
 viewBox="0.00 0.00 657.00 246.80" xmlns="http://www.w3.org/2000/svg" xmlns:xlink="http://www.w3.org/1999/xlink">
<g id="graph0" class="graph" transform="scale(1 1) rotate(0) translate(4 242.8)">
<title>dependencies</title>
<polygon fill="white" stroke="transparent" points="-4,4 -4,-242.8 653,-242.8 653,4 -4,4"/>
<text text-anchor="middle" x="324.5" y="-8.2" font-family="sans-serif" font-size="14.00">dependencies</text>
<g id="clust1" class="cluster">
<title>cluster_HomeModule</title>
<polygon fill="none" stroke="black" stroke-dasharray="1,5" points="8,-32.8 8,-230.8 641,-230.8 641,-32.8 8,-32.8"/>
</g>
<g id="clust2" class="cluster">
<title>cluster_HomeModule_declarations</title>
<polygon fill="none" stroke="black" points="24,-40.8 24,-92.8 627,-92.8 627,-40.8 24,-40.8"/>
</g>
<g id="clust8" class="cluster">
<title>cluster_HomeModule_exports</title>
<polygon fill="none" stroke="black" points="16,-170.8 16,-222.8 633,-222.8 633,-170.8 16,-170.8"/>
</g>
<!-- CardsComponent -->
<g id="node1" class="node">
<title>CardsComponent</title>
<polygon fill="#ffffb3" stroke="black" points="618.99,-84.8 505.01,-84.8 505.01,-48.8 618.99,-48.8 618.99,-84.8"/>
<text text-anchor="middle" x="562" y="-62.6" font-family="Times,serif" font-size="14.00">CardsComponent</text>
</g>
<!-- HomeModule -->
<g id="node5" class="node">
<title>HomeModule</title>
<polygon fill="#8dd3c7" stroke="black" points="327.77,-149.8 324.77,-153.8 303.77,-153.8 300.77,-149.8 234.23,-149.8 234.23,-113.8 327.77,-113.8 327.77,-149.8"/>
<text text-anchor="middle" x="281" y="-127.6" font-family="Times,serif" font-size="14.00">HomeModule</text>
</g>
<!-- CardsComponent&#45;&gt;HomeModule -->
<g id="edge1" class="edge">
<title>CardsComponent&#45;&gt;HomeModule</title>
<path fill="none" stroke="black" d="M581.75,-85.07C581.75,-103.36 581.75,-128.8 581.75,-128.8 581.75,-128.8 337.99,-128.8 337.99,-128.8"/>
<polygon fill="black" stroke="black" points="337.99,-125.3 327.99,-128.8 337.99,-132.3 337.99,-125.3"/>
</g>
<!-- ListStatesComponent -->
<g id="node2" class="node">
<title>ListStatesComponent</title>
<polygon fill="#ffffb3" stroke="black" points="487.05,-84.8 350.95,-84.8 350.95,-48.8 487.05,-48.8 487.05,-84.8"/>
<text text-anchor="middle" x="419" y="-62.6" font-family="Times,serif" font-size="14.00">ListStatesComponent</text>
</g>
<!-- ListStatesComponent&#45;&gt;HomeModule -->
<g id="edge2" class="edge">
<title>ListStatesComponent&#45;&gt;HomeModule</title>
<path fill="none" stroke="black" d="M441.76,-84.81C441.76,-100.85 441.76,-121.8 441.76,-121.8 441.76,-121.8 337.93,-121.8 337.93,-121.8"/>
<polygon fill="black" stroke="black" points="337.93,-118.3 327.93,-121.8 337.93,-125.3 337.93,-118.3"/>
</g>
<!-- MapComponent -->
<g id="node3" class="node">
<title>MapComponent</title>
<polygon fill="#ffffb3" stroke="black" points="332.49,-84.8 225.51,-84.8 225.51,-48.8 332.49,-48.8 332.49,-84.8"/>
<text text-anchor="middle" x="279" y="-62.6" font-family="Times,serif" font-size="14.00">MapComponent</text>
</g>
<!-- MapComponent&#45;&gt;HomeModule -->
<g id="edge3" class="edge">
<title>MapComponent&#45;&gt;HomeModule</title>
<path fill="none" stroke="black" d="M281,-84.91C281,-84.91 281,-103.79 281,-103.79"/>
<polygon fill="black" stroke="black" points="277.5,-103.79 281,-113.79 284.5,-103.79 277.5,-103.79"/>
</g>
<!-- PieChartGraphicComponent -->
<g id="node4" class="node">
<title>PieChartGraphicComponent</title>
<polygon fill="#ffffb3" stroke="black" points="207.91,-84.8 32.09,-84.8 32.09,-48.8 207.91,-48.8 207.91,-84.8"/>
<text text-anchor="middle" x="120" y="-62.6" font-family="Times,serif" font-size="14.00">PieChartGraphicComponent</text>
</g>
<!-- PieChartGraphicComponent&#45;&gt;HomeModule -->
<g id="edge4" class="edge">
<title>PieChartGraphicComponent&#45;&gt;HomeModule</title>
<path fill="none" stroke="black" d="M145.74,-84.82C145.74,-102.17 145.74,-125.8 145.74,-125.8 145.74,-125.8 224.07,-125.8 224.07,-125.8"/>
<polygon fill="black" stroke="black" points="224.07,-129.3 234.07,-125.8 224.07,-122.3 224.07,-129.3"/>
</g>
<!-- CardsComponent  -->
<g id="node6" class="node">
<title>CardsComponent </title>
<polygon fill="#fb8072" stroke="black" points="624.99,-214.8 507.01,-214.8 507.01,-178.8 624.99,-178.8 624.99,-214.8"/>
<text text-anchor="middle" x="566" y="-192.6" font-family="Times,serif" font-size="14.00">CardsComponent </text>
</g>
<!-- HomeModule&#45;&gt;CardsComponent  -->
<g id="edge5" class="edge">
<title>HomeModule&#45;&gt;CardsComponent </title>
<path fill="none" stroke="black" stroke-dasharray="5,2" d="M327.81,-135.8C403.52,-135.8 544.5,-135.8 544.5,-135.8 544.5,-135.8 544.5,-168.5 544.5,-168.5"/>
<polygon fill="black" stroke="black" points="541,-168.5 544.5,-178.5 548,-168.5 541,-168.5"/>
</g>
<!-- ListStatesComponent  -->
<g id="node7" class="node">
<title>ListStatesComponent </title>
<polygon fill="#fb8072" stroke="black" points="489.05,-214.8 348.95,-214.8 348.95,-178.8 489.05,-178.8 489.05,-214.8"/>
<text text-anchor="middle" x="419" y="-192.6" font-family="Times,serif" font-size="14.00">ListStatesComponent </text>
</g>
<!-- HomeModule&#45;&gt;ListStatesComponent  -->
<g id="edge6" class="edge">
<title>HomeModule&#45;&gt;ListStatesComponent </title>
<path fill="none" stroke="black" stroke-dasharray="5,2" d="M327.87,-142.8C359.78,-142.8 396.24,-142.8 396.24,-142.8 396.24,-142.8 396.24,-168.52 396.24,-168.52"/>
<polygon fill="black" stroke="black" points="392.74,-168.52 396.24,-178.52 399.74,-168.52 392.74,-168.52"/>
</g>
<!-- MapComponent  -->
<g id="node8" class="node">
<title>MapComponent </title>
<polygon fill="#fb8072" stroke="black" points="331.49,-214.8 220.51,-214.8 220.51,-178.8 331.49,-178.8 331.49,-214.8"/>
<text text-anchor="middle" x="276" y="-192.6" font-family="Times,serif" font-size="14.00">MapComponent </text>
</g>
<!-- HomeModule&#45;&gt;MapComponent  -->
<g id="edge7" class="edge">
<title>HomeModule&#45;&gt;MapComponent </title>
<path fill="none" stroke="black" stroke-dasharray="5,2" d="M281,-149.91C281,-149.91 281,-168.79 281,-168.79"/>
<polygon fill="black" stroke="black" points="277.5,-168.79 281,-178.79 284.5,-168.79 277.5,-168.79"/>
</g>
<!-- PieChartGraphicComponent  -->
<g id="node9" class="node">
<title>PieChartGraphicComponent </title>
<polygon fill="#fb8072" stroke="black" points="202.41,-214.8 23.59,-214.8 23.59,-178.8 202.41,-178.8 202.41,-214.8"/>
<text text-anchor="middle" x="113" y="-192.6" font-family="Times,serif" font-size="14.00">PieChartGraphicComponent </text>
</g>
<!-- HomeModule&#45;&gt;PieChartGraphicComponent  -->
<g id="edge8" class="edge">
<title>HomeModule&#45;&gt;PieChartGraphicComponent </title>
<path fill="none" stroke="black" stroke-dasharray="5,2" d="M234.04,-137.8C177.2,-137.8 89.01,-137.8 89.01,-137.8 89.01,-137.8 89.01,-168.78 89.01,-168.78"/>
<polygon fill="black" stroke="black" points="85.51,-168.78 89.01,-178.78 92.51,-168.78 85.51,-168.78"/>
</g>
</g>
</svg>
