<?xml version="1.0" encoding="UTF-8" standalone="no"?>
<!DOCTYPE svg PUBLIC "-//W3C//DTD SVG 1.1//EN"
 "http://www.w3.org/Graphics/SVG/1.1/DTD/svg11.dtd">
<!-- Generated by graphviz version 5.0.0 (20220707.1540)
 -->
<!-- Title: dependencies Pages: 1 -->
<svg width="555pt" height="247pt"
 viewBox="0.00 0.00 555.00 246.80" xmlns="http://www.w3.org/2000/svg" xmlns:xlink="http://www.w3.org/1999/xlink">
<g id="graph0" class="graph" transform="scale(1 1) rotate(0) translate(4 242.8)">
<title>dependencies</title>
<polygon fill="white" stroke="transparent" points="-4,4 -4,-242.8 551,-242.8 551,4 -4,4"/>
<text text-anchor="middle" x="273.5" y="-8.2" font-family="sans-serif" font-size="14.00">dependencies</text>
<g id="clust1" class="cluster">
<title>cluster_AppModule</title>
<polygon fill="none" stroke="black" stroke-dasharray="1,5" points="8,-32.8 8,-230.8 539,-230.8 539,-32.8 8,-32.8"/>
</g>
<g id="clust6" class="cluster">
<title>cluster_AppModule_imports</title>
<polygon fill="none" stroke="black" points="421,-40.8 421,-92.8 531,-92.8 531,-40.8 421,-40.8"/>
</g>
<g id="clust8" class="cluster">
<title>cluster_AppModule_bootstrap</title>
<polygon fill="none" stroke="black" points="226,-170.8 226,-222.8 350,-222.8 350,-170.8 226,-170.8"/>
</g>
<g id="clust2" class="cluster">
<title>cluster_AppModule_declarations</title>
<polygon fill="none" stroke="black" points="16,-40.8 16,-92.8 413,-92.8 413,-40.8 16,-40.8"/>
</g>
<!-- AppComponent -->
<g id="node1" class="node">
<title>AppComponent</title>
<polygon fill="#ffffb3" stroke="black" points="404.94,-84.8 299.06,-84.8 299.06,-48.8 404.94,-48.8 404.94,-84.8"/>
<text text-anchor="middle" x="352" y="-62.6" font-family="Times,serif" font-size="14.00">AppComponent</text>
</g>
<!-- AppModule -->
<g id="node4" class="node">
<title>AppModule</title>
<polygon fill="#8dd3c7" stroke="black" points="329.66,-149.8 326.66,-153.8 305.66,-153.8 302.66,-149.8 246.34,-149.8 246.34,-113.8 329.66,-113.8 329.66,-149.8"/>
<text text-anchor="middle" x="288" y="-127.6" font-family="Times,serif" font-size="14.00">AppModule</text>
</g>
<!-- AppComponent&#45;&gt;AppModule -->
<g id="edge1" class="edge">
<title>AppComponent&#45;&gt;AppModule</title>
<path fill="none" stroke="black" d="M314.56,-84.91C314.56,-84.91 314.56,-103.79 314.56,-103.79"/>
<polygon fill="black" stroke="black" points="311.06,-103.79 314.56,-113.79 318.06,-103.79 311.06,-103.79"/>
</g>
<!-- HomeComponent -->
<g id="node2" class="node">
<title>HomeComponent</title>
<polygon fill="#ffffb3" stroke="black" points="281.55,-84.8 166.45,-84.8 166.45,-48.8 281.55,-48.8 281.55,-84.8"/>
<text text-anchor="middle" x="224" y="-62.6" font-family="Times,serif" font-size="14.00">HomeComponent</text>
</g>
<!-- HomeComponent&#45;&gt;AppModule -->
<g id="edge2" class="edge">
<title>HomeComponent&#45;&gt;AppModule</title>
<path fill="none" stroke="black" d="M263.97,-84.91C263.97,-84.91 263.97,-103.79 263.97,-103.79"/>
<polygon fill="black" stroke="black" points="260.47,-103.79 263.97,-113.79 267.47,-103.79 260.47,-103.79"/>
</g>
<!-- NavBarComponent -->
<g id="node3" class="node">
<title>NavBarComponent</title>
<polygon fill="#ffffb3" stroke="black" points="148.37,-84.8 23.63,-84.8 23.63,-48.8 148.37,-48.8 148.37,-84.8"/>
<text text-anchor="middle" x="86" y="-62.6" font-family="Times,serif" font-size="14.00">NavBarComponent</text>
</g>
<!-- NavBarComponent&#45;&gt;AppModule -->
<g id="edge3" class="edge">
<title>NavBarComponent&#45;&gt;AppModule</title>
<path fill="none" stroke="black" d="M86,-84.91C86,-104.14 86,-131.8 86,-131.8 86,-131.8 236.15,-131.8 236.15,-131.8"/>
<polygon fill="black" stroke="black" points="236.15,-135.3 246.15,-131.8 236.15,-128.3 236.15,-135.3"/>
</g>
<!-- AppComponent  -->
<g id="node6" class="node">
<title>AppComponent </title>
<polygon fill="#80b1d3" stroke="black" points="342.44,-214.8 233.56,-214.8 233.56,-178.8 342.44,-178.8 342.44,-214.8"/>
<text text-anchor="middle" x="288" y="-192.6" font-family="Times,serif" font-size="14.00">AppComponent </text>
</g>
<!-- AppModule&#45;&gt;AppComponent  -->
<g id="edge5" class="edge">
<title>AppModule&#45;&gt;AppComponent </title>
<path fill="none" stroke="black" stroke-dasharray="1,5" d="M288,-149.91C288,-149.91 288,-168.79 288,-168.79"/>
<polygon fill="black" stroke="black" points="284.5,-168.79 288,-178.79 291.5,-168.79 284.5,-168.79"/>
</g>
<!-- HomeModule -->
<g id="node5" class="node">
<title>HomeModule</title>
<polygon fill="#8dd3c7" stroke="black" points="522.77,-84.8 519.77,-88.8 498.77,-88.8 495.77,-84.8 429.23,-84.8 429.23,-48.8 522.77,-48.8 522.77,-84.8"/>
<text text-anchor="middle" x="476" y="-62.6" font-family="Times,serif" font-size="14.00">HomeModule</text>
</g>
<!-- HomeModule&#45;&gt;AppModule -->
<g id="edge4" class="edge">
<title>HomeModule&#45;&gt;AppModule</title>
<path fill="none" stroke="black" d="M476,-84.91C476,-104.14 476,-131.8 476,-131.8 476,-131.8 339.72,-131.8 339.72,-131.8"/>
<polygon fill="black" stroke="black" points="339.72,-128.3 329.72,-131.8 339.72,-135.3 339.72,-128.3"/>
</g>
</g>
</svg>
