<?xml version="1.0" encoding="UTF-8" standalone="no"?>
<!DOCTYPE svg PUBLIC "-//W3C//DTD SVG 1.1//EN"
 "http://www.w3.org/Graphics/SVG/1.1/DTD/svg11.dtd">
<!-- Generated by graphviz version 5.0.0 (20220707.1540)
 -->
<!-- Title: dependencies Pages: 1 -->
<svg width="1807pt" height="253pt"
 viewBox="0.00 0.00 1807.00 252.80" xmlns="http://www.w3.org/2000/svg" xmlns:xlink="http://www.w3.org/1999/xlink">
<g id="graph0" class="graph" transform="scale(1 1) rotate(0) translate(4 248.8)">
<title>dependencies</title>
<polygon fill="white" stroke="transparent" points="-4,4 -4,-248.8 1803,-248.8 1803,4 -4,4"/>
<text text-anchor="middle" x="899.5" y="-8.2" font-family="sans-serif" font-size="14.00">dependencies</text>
<g id="clust1" class="cluster">
<title>cluster_AppModule</title>
<polygon fill="none" stroke="black" stroke-dasharray="1,5" points="8,-32.8 8,-236.8 539,-236.8 539,-32.8 8,-32.8"/>
</g>
<g id="clust2" class="cluster">
<title>cluster_AppModule_declarations</title>
<polygon fill="none" stroke="black" points="16,-40.8 16,-92.8 413,-92.8 413,-40.8 16,-40.8"/>
</g>
<g id="clust6" class="cluster">
<title>cluster_AppModule_imports</title>
<polygon fill="none" stroke="black" points="421,-40.8 421,-92.8 531,-92.8 531,-40.8 421,-40.8"/>
</g>
<g id="clust8" class="cluster">
<title>cluster_AppModule_bootstrap</title>
<polygon fill="none" stroke="black" points="226,-176.8 226,-228.8 350,-228.8 350,-176.8 226,-176.8"/>
</g>
<g id="clust10" class="cluster">
<title>cluster_HomeModule</title>
<polygon fill="none" stroke="black" stroke-dasharray="1,5" points="547,-100.8 547,-168.8 1791,-168.8 1791,-100.8 547,-100.8"/>
</g>
<g id="clust11" class="cluster">
<title>cluster_HomeModule_declarations</title>
<polygon fill="none" stroke="black" points="1180,-108.8 1180,-160.8 1783,-160.8 1783,-108.8 1180,-108.8"/>
</g>
<g id="clust17" class="cluster">
<title>cluster_HomeModule_exports</title>
<polygon fill="none" stroke="black" points="555,-108.8 555,-160.8 1172,-160.8 1172,-108.8 555,-108.8"/>
</g>
<!-- AppComponent -->
<g id="node1" class="node">
<title>AppComponent</title>
<polygon fill="#ffffb3" stroke="black" points="404.94,-84.8 299.06,-84.8 299.06,-48.8 404.94,-48.8 404.94,-84.8"/>
<text text-anchor="middle" x="352" y="-62.6" font-family="Times,serif" font-size="14.00">AppComponent</text>
</g>
<!-- AppModule -->
<g id="node4" class="node">
<title>AppModule</title>
<polygon fill="#8dd3c7" stroke="black" points="329.66,-152.8 326.66,-156.8 305.66,-156.8 302.66,-152.8 246.34,-152.8 246.34,-116.8 329.66,-116.8 329.66,-152.8"/>
<text text-anchor="middle" x="288" y="-130.6" font-family="Times,serif" font-size="14.00">AppModule</text>
</g>
<!-- AppComponent&#45;&gt;AppModule -->
<g id="edge1" class="edge">
<title>AppComponent&#45;&gt;AppModule</title>
<path fill="none" stroke="black" d="M314.56,-85.02C314.56,-85.02 314.56,-106.53 314.56,-106.53"/>
<polygon fill="black" stroke="black" points="311.06,-106.53 314.56,-116.53 318.06,-106.53 311.06,-106.53"/>
</g>
<!-- HomeComponent -->
<g id="node2" class="node">
<title>HomeComponent</title>
<polygon fill="#ffffb3" stroke="black" points="281.55,-84.8 166.45,-84.8 166.45,-48.8 281.55,-48.8 281.55,-84.8"/>
<text text-anchor="middle" x="224" y="-62.6" font-family="Times,serif" font-size="14.00">HomeComponent</text>
</g>
<!-- HomeComponent&#45;&gt;AppModule -->
<g id="edge2" class="edge">
<title>HomeComponent&#45;&gt;AppModule</title>
<path fill="none" stroke="black" d="M263.97,-85.02C263.97,-85.02 263.97,-106.53 263.97,-106.53"/>
<polygon fill="black" stroke="black" points="260.47,-106.53 263.97,-116.53 267.47,-106.53 260.47,-106.53"/>
</g>
<!-- NavBarComponent -->
<g id="node3" class="node">
<title>NavBarComponent</title>
<polygon fill="#ffffb3" stroke="black" points="148.37,-84.8 23.63,-84.8 23.63,-48.8 148.37,-48.8 148.37,-84.8"/>
<text text-anchor="middle" x="86" y="-62.6" font-family="Times,serif" font-size="14.00">NavBarComponent</text>
</g>
<!-- NavBarComponent&#45;&gt;AppModule -->
<g id="edge3" class="edge">
<title>NavBarComponent&#45;&gt;AppModule</title>
<path fill="none" stroke="black" d="M86,-85.02C86,-105.17 86,-134.8 86,-134.8 86,-134.8 236.15,-134.8 236.15,-134.8"/>
<polygon fill="black" stroke="black" points="236.15,-138.3 246.15,-134.8 236.15,-131.3 236.15,-138.3"/>
</g>
<!-- AppComponent  -->
<g id="node6" class="node">
<title>AppComponent </title>
<polygon fill="#80b1d3" stroke="black" points="342.44,-220.8 233.56,-220.8 233.56,-184.8 342.44,-184.8 342.44,-220.8"/>
<text text-anchor="middle" x="288" y="-198.6" font-family="Times,serif" font-size="14.00">AppComponent </text>
</g>
<!-- AppModule&#45;&gt;AppComponent  -->
<g id="edge5" class="edge">
<title>AppModule&#45;&gt;AppComponent </title>
<path fill="none" stroke="black" stroke-dasharray="1,5" d="M288,-153.02C288,-153.02 288,-174.53 288,-174.53"/>
<polygon fill="black" stroke="black" points="284.5,-174.53 288,-184.53 291.5,-174.53 284.5,-174.53"/>
</g>
<!-- HomeModule -->
<g id="node5" class="node">
<title>HomeModule</title>
<polygon fill="#8dd3c7" stroke="black" points="522.77,-84.8 519.77,-88.8 498.77,-88.8 495.77,-84.8 429.23,-84.8 429.23,-48.8 522.77,-48.8 522.77,-84.8"/>
<text text-anchor="middle" x="476" y="-62.6" font-family="Times,serif" font-size="14.00">HomeModule</text>
</g>
<!-- HomeModule&#45;&gt;AppModule -->
<g id="edge4" class="edge">
<title>HomeModule&#45;&gt;AppModule</title>
<path fill="none" stroke="black" d="M460.37,-85.07C460.37,-103.36 460.37,-128.8 460.37,-128.8 460.37,-128.8 339.73,-128.8 339.73,-128.8"/>
<polygon fill="black" stroke="black" points="339.73,-125.3 329.73,-128.8 339.73,-132.3 339.73,-125.3"/>
</g>
<!-- CardsComponent  -->
<g id="node11" class="node">
<title>CardsComponent </title>
<polygon fill="#fb8072" stroke="black" points="1163.99,-152.8 1046.01,-152.8 1046.01,-116.8 1163.99,-116.8 1163.99,-152.8"/>
<text text-anchor="middle" x="1105" y="-130.6" font-family="Times,serif" font-size="14.00">CardsComponent </text>
</g>
<!-- HomeModule&#45;&gt;CardsComponent  -->
<g id="edge10" class="edge">
<title>HomeModule&#45;&gt;CardsComponent </title>
<path fill="none" stroke="black" stroke-dasharray="5,2" d="M523.02,-71.8C669.05,-71.8 1105,-71.8 1105,-71.8 1105,-71.8 1105,-106.58 1105,-106.58"/>
<polygon fill="black" stroke="black" points="1101.5,-106.58 1105,-116.58 1108.5,-106.58 1101.5,-106.58"/>
</g>
<!-- ListStatesComponent  -->
<g id="node12" class="node">
<title>ListStatesComponent </title>
<polygon fill="#fb8072" stroke="black" points="1028.05,-152.8 887.95,-152.8 887.95,-116.8 1028.05,-116.8 1028.05,-152.8"/>
<text text-anchor="middle" x="958" y="-130.6" font-family="Times,serif" font-size="14.00">ListStatesComponent </text>
</g>
<!-- HomeModule&#45;&gt;ListStatesComponent  -->
<g id="edge11" class="edge">
<title>HomeModule&#45;&gt;ListStatesComponent </title>
<path fill="none" stroke="black" stroke-dasharray="5,2" d="M523.09,-75.8C644.38,-75.8 958,-75.8 958,-75.8 958,-75.8 958,-106.78 958,-106.78"/>
<polygon fill="black" stroke="black" points="954.5,-106.78 958,-116.78 961.5,-106.78 954.5,-106.78"/>
</g>
<!-- MapComponent  -->
<g id="node13" class="node">
<title>MapComponent </title>
<polygon fill="#fb8072" stroke="black" points="870.49,-152.8 759.51,-152.8 759.51,-116.8 870.49,-116.8 870.49,-152.8"/>
<text text-anchor="middle" x="815" y="-130.6" font-family="Times,serif" font-size="14.00">MapComponent </text>
</g>
<!-- HomeModule&#45;&gt;MapComponent  -->
<g id="edge12" class="edge">
<title>HomeModule&#45;&gt;MapComponent </title>
<path fill="none" stroke="black" stroke-dasharray="5,2" d="M522.78,-80.8C615.78,-80.8 815,-80.8 815,-80.8 815,-80.8 815,-106.52 815,-106.52"/>
<polygon fill="black" stroke="black" points="811.5,-106.52 815,-116.52 818.5,-106.52 811.5,-106.52"/>
</g>
<!-- PieChartGraphicComponent  -->
<g id="node14" class="node">
<title>PieChartGraphicComponent </title>
<polygon fill="#fb8072" stroke="black" points="741.41,-152.8 562.59,-152.8 562.59,-116.8 741.41,-116.8 741.41,-152.8"/>
<text text-anchor="middle" x="652" y="-130.6" font-family="Times,serif" font-size="14.00">PieChartGraphicComponent </text>
</g>
<!-- HomeModule&#45;&gt;PieChartGraphicComponent  -->
<g id="edge13" class="edge">
<title>HomeModule&#45;&gt;PieChartGraphicComponent </title>
<path fill="none" stroke="black" stroke-dasharray="5,2" d="M491.63,-85.09C491.63,-107.01 491.63,-140.8 491.63,-140.8 491.63,-140.8 552.44,-140.8 552.44,-140.8"/>
<polygon fill="black" stroke="black" points="552.44,-144.3 562.44,-140.8 552.44,-137.3 552.44,-144.3"/>
</g>
<!-- CardsComponent -->
<g id="node7" class="node">
<title>CardsComponent</title>
<polygon fill="#ffffb3" stroke="black" points="1774.99,-152.8 1661.01,-152.8 1661.01,-116.8 1774.99,-116.8 1774.99,-152.8"/>
<text text-anchor="middle" x="1718" y="-130.6" font-family="Times,serif" font-size="14.00">CardsComponent</text>
</g>
<!-- CardsComponent&#45;&gt;HomeModule -->
<g id="edge6" class="edge">
<title>CardsComponent&#45;&gt;HomeModule</title>
<path fill="none" stroke="black" d="M1718,-116.42C1718,-92.52 1718,-53.8 1718,-53.8 1718,-53.8 532.8,-53.8 532.8,-53.8"/>
<polygon fill="black" stroke="black" points="532.8,-50.3 522.8,-53.8 532.8,-57.3 532.8,-50.3"/>
</g>
<!-- ListStatesComponent -->
<g id="node8" class="node">
<title>ListStatesComponent</title>
<polygon fill="#ffffb3" stroke="black" points="1643.05,-152.8 1506.95,-152.8 1506.95,-116.8 1643.05,-116.8 1643.05,-152.8"/>
<text text-anchor="middle" x="1575" y="-130.6" font-family="Times,serif" font-size="14.00">ListStatesComponent</text>
</g>
<!-- ListStatesComponent&#45;&gt;HomeModule -->
<g id="edge7" class="edge">
<title>ListStatesComponent&#45;&gt;HomeModule</title>
<path fill="none" stroke="black" d="M1575,-116.55C1575,-93.78 1575,-57.8 1575,-57.8 1575,-57.8 532.87,-57.8 532.87,-57.8"/>
<polygon fill="black" stroke="black" points="532.87,-54.3 522.87,-57.8 532.87,-61.3 532.87,-54.3"/>
</g>
<!-- MapComponent -->
<g id="node9" class="node">
<title>MapComponent</title>
<polygon fill="#ffffb3" stroke="black" points="1488.49,-152.8 1381.51,-152.8 1381.51,-116.8 1488.49,-116.8 1488.49,-152.8"/>
<text text-anchor="middle" x="1435" y="-130.6" font-family="Times,serif" font-size="14.00">MapComponent</text>
</g>
<!-- MapComponent&#45;&gt;HomeModule -->
<g id="edge8" class="edge">
<title>MapComponent&#45;&gt;HomeModule</title>
<path fill="none" stroke="black" d="M1435,-116.63C1435,-95.3 1435,-62.8 1435,-62.8 1435,-62.8 532.9,-62.8 532.9,-62.8"/>
<polygon fill="black" stroke="black" points="532.9,-59.3 522.9,-62.8 532.9,-66.3 532.9,-59.3"/>
</g>
<!-- PieChartGraphicComponent -->
<g id="node10" class="node">
<title>PieChartGraphicComponent</title>
<polygon fill="#ffffb3" stroke="black" points="1363.91,-152.8 1188.09,-152.8 1188.09,-116.8 1363.91,-116.8 1363.91,-152.8"/>
<text text-anchor="middle" x="1276" y="-130.6" font-family="Times,serif" font-size="14.00">PieChartGraphicComponent</text>
</g>
<!-- PieChartGraphicComponent&#45;&gt;HomeModule -->
<g id="edge9" class="edge">
<title>PieChartGraphicComponent&#45;&gt;HomeModule</title>
<path fill="none" stroke="black" d="M1276,-116.58C1276,-96.43 1276,-66.8 1276,-66.8 1276,-66.8 533.06,-66.8 533.06,-66.8"/>
<polygon fill="black" stroke="black" points="533.06,-63.3 523.06,-66.8 533.06,-70.3 533.06,-63.3"/>
</g>
</g>
</svg>
